Item(by='zinekeller', descendants=None, kids=None, score=None, time=1608027790, title=None, item_type='comment', url=None, parent=25428368, text='The previous answers were speculative, but I have tried to download a random audio&#x2F;video that was uploaded through YouTube&#x27;s media programme (directly by media companies), and the answer is that they do re-send the video frame every 5 seconds for both H.264 and VP9, and it is encoded both at a rate of 25 frames per second and the width and height are the same. Here are the file details for both formats:<p>H.264&#x2F;AAC4:<p><pre><code>  Video\n  ID                                       : 1\n  Format                                   : AVC\n  Format&#x2F;Info                              : Advanced Video Codec\n  Format profile                           : High@L3.2\n  Format settings                          : CABAC &#x2F; 2 Ref Frames\n  Format settings, CABAC                   : Yes\n  Format settings, Reference frames        : 2 frames\n  Codec ID                                 : avc1\n  Codec ID&#x2F;Info                            : Advanced Video Coding\n  Duration                                 : 3 min 29 s\n  Bit rate                                 : 375 kb&#x2F;s\n  Width                                    : 1 080 pixels\n  Height                                   : 1 080 pixels\n  Display aspect ratio                     : 1.000\n  Frame rate mode                          : Constant\n  Frame rate                               : 25.000 FPS\n  Color space                              : YUV\n  Chroma subsampling                       : 4:2:0\n  Bit depth                                : 8 bits\n  Scan type                                : Progressive\n  Bits&#x2F;(Pixel*Frame)                       : 0.013\n  Stream size                              : 9.35 MiB (74%)\n  Writing library                          : x264 core 155 r2901 7d0ff22\n  Codec configuration box                  : avcC\n\n  Audio\n  ID                                       : 2\n  Format                                   : AAC LC\n  Format&#x2F;Info                              : Advanced Audio Codec Low Complexity\n  Codec ID                                 : mp4a-40-2\n  Duration                                 : 3 min 29 s\n  Bit rate mode                            : Constant\n  Bit rate                                 : 128 kb&#x2F;s\n  Channel(s)                               : 2 channels\n  Channel layout                           : L R\n  Sampling rate                            : 44.1 kHz\n  Frame rate                               : 43.066 FPS (1024 SPF)\n  Compression mode                         : Lossy\n  Stream size                              : 3.19 MiB (25%)\n  Default                                  : Yes\n  Alternate group                          : 1\n\n</code></pre>\nVP9&#x2F;Opus:<p><pre><code>  Video\n  ID                                       : 1\n  Format                                   : VP9\n  Codec ID                                 : V_VP9\n  Duration                                 : 3 min 29 s\n  Width                                    : 1 080 pixels\n  Height                                   : 1 080 pixels\n  Display aspect ratio                     : 1.000\n  Frame rate mode                          : Constant\n  Frame rate                               : 25.000 FPS\n  Language                                 : English\n  Default                                  : Yes\n  Forced                                   : No\n  Color range                              : Limited\n\n  Audio\n  ID                                       : 2\n  Format                                   : Opus\n  Codec ID                                 : A_OPUS\n  Duration                                 : 3 min 29 s\n  Channel(s)                               : 2 channels\n  Channel layout                           : L R\n  Sampling rate                            : 48.0 kHz\n  Bit depth                                : 32 bits\n  Compression mode                         : Lossy\n  Language                                 : English\n  Default                                  : Yes\n  Forced                                   : No</code></pre>')